<svg xmlns="http://www.w3.org/2000/svg" xmlns:xlink="http://www.w3.org/1999/xlink" width="250.446" height="50" viewBox="0 0 250.446 50"><defs><linearGradient id="a" x1="0.118" y1="0.266" x2="0.835" y2="0.473" gradientUnits="objectBoundingBox"><stop offset="0.085"/><stop offset="0.218" stop-color="#0a2a38"/><stop offset="0.376" stop-color="#165773"/><stop offset="0.521" stop-color="#1f7aa3"/><stop offset="0.649" stop-color="#2694c5"/><stop offset="0.754" stop-color="#2aa4da"/><stop offset="0.823" stop-color="#2caae2"/></linearGradient></defs><g transform="translate(-390 -27)"><g transform="translate(435.072 34.585)"><path d="M1125.2,6561.034h-11.67v26.075h4.833v-21.826h6.528q3.245,0,3.245,3.244,0,4.014-6.564,5.2l.693,4.3q10.922-1.679,10.923-9.646Q1133.187,6561.034,1125.2,6561.034Z" transform="translate(-1113.53 -6561.034)" fill="#293b8f"/><path d="M1133.354,6566.012h-3.737v19.146h4.832v-13a6.521,6.521,0,0,1,4.833-2.242v-3.9a7.592,7.592,0,0,0-5.324,2.444Z" transform="translate(-1107.225 -6559.083)" fill="#293b8f"/><path d="M1147.352,6565.973q-9.481,0-9.482,9.628.036,9.609,9.482,9.609,9.481,0,9.482-9.609Q1156.834,6565.973,1147.352,6565.973Zm0,15.553q-4.65,0-4.651-6,0-5.851,4.651-5.853t4.649,5.853Q1152,6581.527,1147.352,6581.526Z" transform="translate(-1103.99 -6559.098)" fill="#293b8f"/><path d="M1175.685,6566.012a9.139,9.139,0,0,0-6.145,2.626q-1.33-2.626-4.942-2.626a8.135,8.135,0,0,0-6.182,2.772l-.565-2.772h-3.737v19.146h4.831v-13.312a5.548,5.548,0,0,1,3.994-1.932q2.662,0,2.663,3.246v12h4.831v-13.312a5.931,5.931,0,0,1,4.14-1.932q2.881,0,2.881,3.19v12.053h4.832v-11.872Q1182.286,6566.013,1175.685,6566.012Z" transform="translate(-1097.623 -6559.083)" fill="#293b8f"/><path d="M1186.455,6565.973q-9.481,0-9.482,9.628.037,9.609,9.482,9.609,9.481,0,9.482-9.609Q1195.937,6565.973,1186.455,6565.973Zm0,15.553q-4.65,0-4.649-6,0-5.851,4.649-5.853t4.651,5.853Q1191.105,6581.527,1186.455,6581.526Z" transform="translate(-1088.664 -6559.098)" fill="#293b8f"/><path d="M1196.594,6563.785h-3.573v17.086q0,5.161,4.813,5.161h4.3v-3.83h-1.97q-2.315,0-2.316-2.68v-8.808h4.286v-3.829h-4.815Z" transform="translate(-1082.374 -6559.956)" fill="#293b8f"/><path d="M1210.263,6566.012q-8.991,0-8.989,9.354,0,9.79,10.412,9.792a29.763,29.763,0,0,0,6.162-.547v-3.83a31.194,31.194,0,0,1-5.8.547q-5.947,0-5.945-4.048h12.71a17.372,17.372,0,0,0,.164-2.37Q1218.98,6566.011,1210.263,6566.012Zm4.011,7.914h-8.169q.328-4.121,4.158-4.122,4.011,0,4.011,3.975Z" transform="translate(-1079.139 -6559.083)" fill="#293b8f"/><path d="M1229.277,6566.012l-4.468,5.981-4.467-5.981h-5.379l7.166,9.573-7.166,9.573h5.379l4.467-5.98,4.468,5.98h5.379l-7.148-9.573,7.148-9.573Z" transform="translate(-1073.774 -6559.083)" fill="#293b8f"/><path d="M1234.127,6563.785h-3.574v17.086q0,5.161,4.813,5.161h4.3v-3.83h-1.97q-2.315,0-2.316-2.68v-8.808h4.286v-3.829h-4.813Z" transform="translate(-1067.664 -6559.956)" fill="#293b8f"/><path d="M1247.794,6566.012q-8.988,0-8.989,9.354,0,9.79,10.412,9.792a29.77,29.77,0,0,0,6.164-.547v-3.83a31.212,31.212,0,0,1-5.8.547q-5.944,0-5.945-4.048h12.71a17.161,17.161,0,0,0,.164-2.37Q1256.511,6566.011,1247.794,6566.012Zm4.012,7.914h-8.169q.33-4.121,4.157-4.122,4.011,0,4.012,3.975Z" transform="translate(-1064.429 -6559.083)" fill="#293b8f"/><path d="M1258.472,6568.456l-.6-2.444h-3.737v19.146h4.831v-13a6.521,6.521,0,0,1,4.833-2.242v-3.9A7.592,7.592,0,0,0,1258.472,6568.456Z" transform="translate(-1058.422 -6559.083)" fill="#293b8f"/></g><g transform="translate(390 27)"><ellipse cx="19.135" cy="19.08" rx="19.135" ry="19.08" fill="#29abe2"/><path d="M1099.838,6588.485a19.073,19.073,0,0,1-19.061-19.135h19.061Z" transform="translate(-1080.748 -6550.221)" fill="url(#a)"/><path d="M1088.063,6588.669c0,9.891-7.3,13.423-7.3,13.423v-30.975l7.3-6.436Z" transform="translate(-1080.755 -6552.093)" fill="#29abe2"/><circle cx="11.829" cy="11.829" r="11.829" transform="translate(7.307 7.305)" fill="#293b8f"/><path d="M1099.538,6573.042a4.51,4.51,0,1,0-1.388,1.37l2.1.691Z" transform="translate(-1076.632 -6551.456)" fill="#fff"/></g></g></svg>